<svg width="94" height="94" viewBox="0 0 94 94" fill="none" xmlns="http://www.w3.org/2000/svg">
    <path d="M55.6525 60.1147H52.3759C51.1256 60.1147 50.1105 59.0996 50.1105 57.8493V57.6729C50.1105 56.4226 51.1256 55.4075 52.3759 55.4075H55.6525C56.9028 55.4075 57.918 56.4226 57.918 57.6729V57.8493C57.918 59.0996 56.9068 60.1147 55.6525 60.1147Z" fill="#16056B"/>
    <path d="M56.3961 59.8712C57.236 59.8712 57.9169 58.8727 57.9169 57.641C57.9169 56.4094 57.236 55.4109 56.3961 55.4109C55.5563 55.4109 54.8754 56.4094 54.8754 57.641C54.8754 58.8727 55.5563 59.8712 56.3961 59.8712Z" fill="white"/>
    <path d="M62.087 51.6875L58.8182 51.903C57.5718 51.9853 56.494 51.0408 56.4117 49.7905L56.3999 49.6141C56.3176 48.3677 57.2622 47.2899 58.5125 47.2076L61.7813 46.992C63.0276 46.9097 64.1055 47.8543 64.1878 49.1046L64.1995 49.281C64.2819 50.5273 63.3373 51.6052 62.087 51.6875Z" fill="#16056B"/>
    <path d="M62.811 51.39C63.649 51.3349 64.2629 50.294 64.1821 49.065C64.1013 47.836 63.3564 46.8844 62.5184 46.9395C61.6804 46.9946 61.0665 48.0355 61.1473 49.2645C61.2281 50.4935 61.973 51.4451 62.811 51.39Z" fill="white"/>
    <path d="M91.8748 29.1357C91.3496 31.3149 87.8848 34.4701 80.2459 39.1381C73.6927 43.1476 46.8095 49.5754 32.8485 52.7345C27.7259 53.8946 24.3434 54.6158 24.3434 54.6158C16.6065 60.3538 2.86901 61.1338 2.86901 61.1338L13.4749 54.6158L0 38.4443L8.69324 34.9678L23.2146 43.6611C29.2113 40.5295 55.9025 29.8373 66.9435 25.4907C74.0297 22.7001 80.3674 23.386 84.2241 24.3031C85.9408 24.7107 87.1676 25.1654 87.7516 25.381C87.9005 25.4319 88.0063 25.4711 88.0691 25.4907C88.9392 25.7494 91.3731 25.9257 91.8944 28.0971C91.9728 28.4185 91.965 28.7634 91.8748 29.1357Z" fill="#66AADC"/>
    <path d="M91.6878 28.9438C91.1626 31.123 87.6979 34.2781 80.0589 38.9461C73.5057 42.9557 46.6225 49.3835 32.6616 52.5426C44.3963 48.9132 67.3601 41.7642 72.2319 39.9025C76.6765 38.2054 86.036 32.4987 91.6878 28.9438Z" fill="#5188D6"/>
    <path d="M42.9102 50.1793L34.311 72.8923C34.311 72.8923 41.0445 73.9074 44.329 70.2153C47.6135 66.5232 63.6752 44.7039 63.6752 44.7039L42.9102 50.1793Z" fill="#5188D6"/>
    <path d="M63.5564 38.5461L62.5374 38.9302C62.2708 39.0321 61.9769 38.8949 61.875 38.6323L61.0166 36.3669C60.9147 36.1004 61.0519 35.8065 61.3145 35.7046L62.3336 35.3205C62.6001 35.2185 62.894 35.3557 62.9959 35.6183L63.8543 37.8837C63.9562 38.1503 63.8229 38.4442 63.5564 38.5461Z" fill="white"/>
    <path d="M66.6019 37.3938L65.5829 37.7779C65.3163 37.8798 65.0224 37.7426 64.9205 37.48L64.0621 35.2146C63.9602 34.9481 64.0974 34.6541 64.36 34.5522L65.3791 34.1681C65.6456 34.0662 65.9395 34.2034 66.0414 34.466L66.8998 36.7314C67.0017 36.9979 66.8684 37.2919 66.6019 37.3938Z" fill="white"/>
    <path d="M69.9334 36.1318L68.9144 36.5159C68.6478 36.6178 68.3539 36.4806 68.252 36.218L67.3936 33.9526C67.2917 33.686 67.4289 33.3921 67.6915 33.2902L68.7106 32.9061C68.9771 32.8042 69.271 32.9414 69.3729 33.204L70.2313 35.4694C70.3332 35.7359 70.1999 36.0338 69.9334 36.1318Z" fill="white"/>
    <path d="M87.7506 25.3809C85.1089 29.1788 80.39 29.8647 80.39 29.8647L79.171 27.1408C82.6084 26.6469 83.8077 25.2555 84.2231 24.3031C85.9399 24.7107 87.1666 25.1654 87.7506 25.3809Z" fill="white"/>
</svg>
