<svg width="24" height="24" viewBox="0 0 24 24" fill="none" xmlns="http://www.w3.org/2000/svg">
    <path d="M20.3582 11.094L20.2732 10.735H12.4732V14.035H17.1352C16.8763 15.0461 16.2859 15.9413 15.4583 16.5774C14.6308 17.2135 13.6139 17.5538 12.5702 17.544C11.2056 17.5323 9.89489 17.01 8.89621 16.08C8.40501 15.5964 8.01396 15.0206 7.74542 14.3858C7.47689 13.7509 7.33613 13.0693 7.33121 12.38C7.35114 10.9954 7.90124 9.67118 8.86821 8.68C9.85361 7.7486 11.1624 7.23656 12.5182 7.252C13.6652 7.26811 14.7678 7.69778 15.6232 8.462L17.9702 6.127C16.4506 4.76112 14.4805 4.00378 12.4372 4C11.3278 3.97873 10.2254 4.18069 9.19561 4.59389C8.16579 5.00708 7.22954 5.62308 6.4425 6.40527C5.65546 7.18746 5.03368 8.11988 4.61413 9.14712C4.19457 10.1744 3.9858 11.2755 4.00021 12.385C3.98801 14.5504 4.80984 16.6373 6.29521 18.213C7.12279 19.04 8.10776 19.6927 9.19189 20.1326C10.276 20.5725 11.4373 20.7906 12.6072 20.774C13.6646 20.7826 14.7127 20.5758 15.6875 20.1661C16.6623 19.7564 17.5435 19.1524 18.2772 18.391C19.7182 16.8073 20.4976 14.7317 20.4552 12.591C20.4617 12.0902 20.4293 11.5897 20.3582 11.094Z" fill="white"/>
</svg>
