<svg width="48" height="48" viewBox="0 0 48 48" fill="none" xmlns="http://www.w3.org/2000/svg">
    <g filter="url(#filter0_b_97_1420)">
        <rect width="48" height="48" rx="24" transform="matrix(-1 0 0 1 48 0)" fill="white" fill-opacity="0.2"/>
        <rect x="-0.5" y="0.5" width="47" height="47" rx="23.5" transform="matrix(-1 0 0 1 47 0)" stroke="url(#paint0_radial_97_1420)"/>
    </g>
    <path d="M30.5 28.9351C30.5521 28.9867 30.5934 29.0482 30.6216 29.1159C30.6498 29.1837 30.6644 29.2563 30.6644 29.3297C30.6644 29.403 30.6498 29.4757 30.6216 29.5434C30.5934 29.6111 30.5521 29.6726 30.5 29.7242L29.7221 30.5023C29.6704 30.5544 29.609 30.5957 29.5413 30.6239C29.4735 30.6522 29.4009 30.6667 29.3276 30.6667C29.2542 30.6667 29.1816 30.6522 29.1139 30.6239C29.0462 30.5957 28.9847 30.5544 28.933 30.5023L24.001 25.5672L19.0668 30.5023C19.0151 30.5544 18.9537 30.5957 18.886 30.6239C18.8183 30.6522 18.7456 30.6667 18.6723 30.6667C18.5989 30.6667 18.5263 30.6522 18.4586 30.6239C18.3909 30.5957 18.3294 30.5544 18.2778 30.5023L17.4998 29.7242C17.4478 29.6726 17.4064 29.6111 17.3782 29.5434C17.35 29.4757 17.3355 29.403 17.3355 29.3297C17.3355 29.2563 17.35 29.1837 17.3782 29.1159C17.4064 29.0482 17.4478 28.9867 17.4998 28.9351L22.4319 24.0022L17.4976 19.0649C17.4455 19.0133 17.4042 18.9518 17.376 18.8841C17.3478 18.8164 17.3333 18.7437 17.3333 18.6704C17.3333 18.597 17.3478 18.5244 17.376 18.4566C17.4042 18.3889 17.4455 18.3274 17.4976 18.2758L18.2755 17.4977C18.3272 17.4456 18.3886 17.4043 18.4564 17.3761C18.5241 17.3479 18.5967 17.3333 18.6701 17.3333C18.7434 17.3333 18.816 17.3479 18.8837 17.3761C18.9515 17.4043 19.0129 17.4456 19.0646 17.4977L24.001 22.4328L28.9353 17.4977C28.9869 17.4456 29.0484 17.4043 29.1161 17.3761C29.1838 17.3479 29.2564 17.3333 29.3298 17.3333C29.4031 17.3333 29.4758 17.3479 29.5435 17.3761C29.6112 17.4043 29.6726 17.4456 29.7243 17.4977L30.5022 18.2758C30.5543 18.3274 30.5956 18.3889 30.6239 18.4566C30.6521 18.5244 30.6666 18.597 30.6666 18.6704C30.6666 18.7437 30.6521 18.8164 30.6239 18.8841C30.5956 18.9518 30.5543 19.0133 30.5022 19.0649L25.5658 24.0022L30.5 28.9351Z" fill="#16056B"/>
    <defs>
        <filter id="filter0_b_97_1420" x="-40" y="-40" width="128" height="128" filterUnits="userSpaceOnUse" color-interpolation-filters="sRGB">
            <feFlood flood-opacity="0" result="BackgroundImageFix"/>
            <feGaussianBlur in="BackgroundImageFix" stdDeviation="20"/>
            <feComposite in2="SourceAlpha" operator="in" result="effect1_backgroundBlur_97_1420"/>
            <feBlend mode="normal" in="SourceGraphic" in2="effect1_backgroundBlur_97_1420" result="shape"/>
        </filter>
        <radialGradient id="paint0_radial_97_1420" cx="0" cy="0" r="1" gradientUnits="userSpaceOnUse" gradientTransform="translate(-5.91305 -8.97322) rotate(65.0059) scale(81.3604 69.9363)">
            <stop stop-color="white" stop-opacity="0.75"/>
            <stop offset="1" stop-color="white" stop-opacity="0"/>
        </radialGradient>
    </defs>
</svg>
